#!OML:ASF I:\Actors\actors\Patient Classification 2\Patient 1\Session 1\actor1.ASF
:FULLY-SPECIFIED
:DEGREES
365
root -0.639254 18.6885 5.45441 4.65598 0.712462 -9.27113
lowerback 16.0407 3.33257 -8.07949
upperback 5.40751 2.79719 -6.90446
thorax -3.21622 1.38049 -3.30293
lowerneck -16.9372 0.644692 -3.11474
upperneck 26.1253 2.01921 -0.400633
head 11.2651 0.55055 0.675148
rclavicle -6.36111e-014 8.90555e-014
rhumerus 22.5548 32.8378 -6.36878
rradius 117.764
rwrist -76.1858
rhand 34.9816 -39.3587
rfingers 7.12502
rthumb 58.1212 -54.9709
lclavicle -6.36111e-014 8.90555e-014
lhumerus 17.0364 -36.5269 27.5413
lradius 90.3417
lwrist 47.0742
lhand -0.0981688 -27.5476
lfingers 7.12502
lthumb 25.4963 0.766673
rfemur 2.2245 2.98014 23.6659
rtibia 1.19271e-014
rfoot -16.1727 -14.7836
rtoes -13.0309
lfemur -15.571 -2.02324 -3.77836
ltibia 31.3691
lfoot -20.963 8.46718
ltoes -57.0456
366
root -0.63477 18.6872 5.46436 4.55271 0.412785 -9.25161
lowerback 16.0775 3.27077 -8.13251
upperback 5.31678 2.68963 -6.9628
thorax -3.3322 1.32994 -3.32147
lowerneck -16.7631 0.439461 -3.47648
upperneck 25.4989 1.83994 -0.515844
head 10.9977 0.432266 0.663686
rclavicle 0 6.67916e-014
rhumerus 21.6678 31.4303 -6.76673
rradius 118.186
rwrist -76.6245
rhand 35.4587 -39.5079
rfingers 7.12502
rthumb 58.536 -54.7384
lclavicle 0 6.67916e-014
lhumerus 16.8021 -36.533 27.4122
lradius 90.3289
lwrist 46.9883
lhand -0.223809 -27.4286
lfingers 7.12502
lthumb 25.376 0.902807
rfemur 2.3656 3.26975 23.622
rtibia -1.11319e-014
rfoot -16.2212 -14.772
rtoes -12.8638
lfemur -15.296 -1.92713 -3.84495
ltibia 31.3639
lfoot -21.0732 8.53647
ltoes -57.0294
367
root -0.633399 18.6867 5.47068 4.51992 0.192642 -9.25
lowerback 16.0869 3.17057 -8.20038
upperback 5.19767 2.53216 -6.98865
thorax -3.46626 1.25552 -3.28625
lowerneck -16.6383 0.221012 -4.08652
upperneck 24.9824 1.66091 -0.428548
head 10.7804 0.314286 0.769059
rclavicle -5.40694e-014 -4.13472e-014
rhumerus 20.8892 30.0181 -7.03296
rradius 118.607
rwrist -77.0689
rhand 36.2774 -39.6276
rfingers 7.12502
rthumb 59.2443 -54.1775
lclavicle -5.40694e-014 -4.13472e-014
lhumerus 16.515 -36.4927 27.3309
lradius 90.2802
lwrist 46.8837
lhand -0.180133 -27.4858
lfingers 7.12502
lthumb 25.4178 0.839673
rfemur 2.42336 3.48686 23.6159
rtibia 2.3059e-014
rfoot -16.2311 -14.8033
rtoes -12.9712
lfemur -15.1402 -1.80799 -3.86779
ltibia 31.3457
lfoot -21.0868 8.61758
ltoes -57.067
368
root -0.630824 18.6864 5.47667 4.53555 -0.00187 -9.20459
lowerback 16.0576 3.05011 -8.27775
upperback 5.09462 2.35437 -7.00584
thorax -3.56273 1.17056 -3.22926
lowerneck -16.5464 0.0210922 -4.64191
upperneck 24.4559 1.50885 -0.403592
head 10.5701 0.207699 0.846629
rclavicle 3.18055e-015 -6.67916e-014
rhumerus 20.2239 28.4973 -7.12182
rradius 119.024
rwrist -77.7488
rhand 37.2193 -39.7715
rfingers 7.12502
rthumb 60.0528 -53.4962
lclavicle 3.18055e-015 -6.67916e-014
lhumerus 16.2347 -36.3687 27.3157
lradius 90.2603
lwrist 46.8268
lhand -0.0621608 -27.4135
lfingers 7.12502
lthumb 25.5308 0.895756
rfemur 2.42494 3.67753 23.5484
rtibia 7.95139e-015
rfoot -16.2461 -14.8174
rtoes -13.0294
lfemur -15.0488 -1.73779 -3.94166
ltibia 31.3204
lfoot -21.1339 8.73678
ltoes -57.07
369
root -0.627213 18.6859 5.48604 4.53377 -0.217677 -9.16873
lowerback 16.0374 2.97657 -8.23255
upperback 4.99996 2.25445 -7.06758
thorax -3.64932 1.12415 -3.30369
lowerneck -16.3604 -0.200855 -4.90614
upperneck 23.8555 1.28801 -0.57904
head 10.3228 0.0762087 0.794367
rclavicle 2.22639e-014 -8.90555e-014
rhumerus 19.3113 26.9303 -7.24139
rradius 119.5
rwrist -78.565
rhand 37.8918 -39.9292
rfingers 7.12502
rthumb 60.6258 -53.0353
lclavicle 2.22639e-014 -8.90555e-014
lhumerus 16.1906 -36.3359 27.1987
lradius 90.2801
lwrist 46.7768
lhand -0.0709122 -27.3225
lfingers 7.12502
lthumb 25.5224 0.988001
rfemur 2.44968 3.88892 23.4864
rtibia 1.98785e-014
rfoot -16.2571 -14.8294
rtoes -13.2152
lfemur -14.91 -1.66344 -4.01016
ltibia 31.2908
lfoot -21.2324 8.79775
ltoes -56.9843
370
root -0.625077 18.6849 5.49724 4.51539 -0.47821 -9.16241
lowerback 15.9632 2.90568 -8.16563
upperback 4.87507 2.16332 -7.17153
thorax -3.73741 1.08242 -3.43572
lowerneck -16.0196 -0.405909 -4.96725
upperneck 23.1736 1.07066 -0.950494
head 10.0218 -0.0549925 0.64097
rclavicle -2.22639e-014 -1.27222e-013
rhumerus 18.3551 25.6031 -7.41125
rradius 120.064
rwrist -78.9841
rhand 37.7709 -39.2184
rfingers 7.12502
rthumb 60.523 -52.4376
lclavicle -2.22639e-014 -1.27222e-013
lhumerus 16.0997 -36.3822 26.9666
lradius 90.3177
lwrist 46.7786
lhand -0.0991854 -27.4704
lfingers 7.12502
lthumb 25.4954 0.843961
rfemur 2.49223 4.14666 23.4665
rtibia 1.59028e-014
rfoot -16.2385 -14.8515
rtoes -13.505
lfemur -14.7316 -1.50201 -4.03504
ltibia 31.2586
lfoot -21.3403 8.78608
ltoes -56.8614
371
root -0.626339 18.6847 5.50013 4.48233 -0.562784 -9.1088
lowerback 16.0099 2.72263 -8.20438
upperback 4.73489 1.893 -7.24348
thorax -3.91164 0.954454 -3.44638
lowerneck -15.5128 -0.552634 -4.91535
upperneck 22.3124 0.933211 -1.52463
head 9.62935 -0.156391 0.41208
rclavicle 9.54166e-015 -3.18055e-015
rhumerus 17.7009 24.2948 -7.4917
rradius 120.606
rwrist -79.443
rhand 37.0681 -38.1584
rfingers 7.12502
rthumb 59.9235 -52.0187
lclavicle 9.54166e-015 -3.18055e-015
lhumerus 15.829 -36.3348 26.8364
lradius 90.2525
lwrist 46.7686
lhand -0.0949855 -27.6652
lfingers 7.12502
lthumb 25.4994 0.648575
rfemur 2.54133 4.22473 23.413
rtibia -3.18055e-015
rfoot -16.2513 -14.8525
rtoes -13.6211
lfemur -14.6513 -1.45112 -4.08916
ltibia 31.2361
lfoot -21.3707 8.73738
ltoes -56.785
372
root -0.625173 18.6857 5.51172 4.52864 -0.786143 -9.0953
lowerback 15.838 2.56962 -8.20616
upperback 4.62943 1.70239 -7.28762
thorax -3.93149 0.86235 -3.45033
lowerneck -15.0246 -0.694628 -4.71613
upperneck 21.3617 0.792499 -2.25489
head 9.21482 -0.259446 0.110713
rclavicle -1.90833e-014 -1.59028e-014
rhumerus 17.1652 22.7659 -7.53316
rradius 120.997
rwrist -79.8742
rhand 37.0353 -37.5639
rfingers 7.12502
rthumb 59.8954 -51.4535
lclavicle -1.90833e-014 -1.59028e-014
lhumerus 15.6186 -36.1967 26.7934
lradius 90.1335
lwrist 46.6995
lhand -0.0990431 -27.7274
lfingers 7.12502
lthumb 25.4955 0.586952
rfemur 2.52285 4.44864 23.38
rtibia -1.11319e-014
rfoot -16.2752 -14.8464
rtoes -13.6911
lfemur -14.5739 -1.31505 -4.12458
ltibia 31.2243
lfoot -21.4399 8.79453
ltoes -56.7989
373
root -0.623879 18.685 5.51906 4.49929 -0.917009 -9.09224
lowerback 15.8445 2.42444 -8.17442
upperback 4.51441 1.50214 -7.32329
thorax -4.05712 0.767427 -3.4714
lowerneck -14.6655 -0.878277 -4.75764
upperneck 20.6304 0.58993 -2.66582
head 8.90218 -0.37965 -0.0439975
rclavicle -1.43125e-014 2.8625e-014
rhumerus 16.57 21.1854 -7.63202
rradius 121.282
rwrist -80.1693
rhand 37.7904 -37.1946
rfingers 7.12502
rthumb 60.5396 -50.3957
lclavicle -1.43125e-014 2.8625e-014
lhumerus 15.4503 -36.1371 26.6926
lradius 90.0965
lwrist 46.6503
lhand -0.105858 -27.7284
lfingers 7.12502
lthumb 25.489 0.586845
rfemur 2.57541 4.57693 23.3728
rtibia -1.43125e-014
rfoot -16.2589 -14.8451
rtoes -13.8155
lfemur -14.4532 -1.24209 -4.14965
ltibia 31.2121
lfoot -21.4534 8.89161
ltoes -56.9307
374
root -0.622978 18.6841 5.53152 4.51972 -1.16182 -9.10496
lowerback 15.6953 2.29383 -8.1689
upperback 4.44299 1.34226 -7.36192
thorax -4.05269 0.689431 -3.48019
lowerneck -14.7776 -1.0749 -5.18788
upperneck 20.2098 0.412982 -2.66815
head 8.78298 -0.485465 0.00630463
rclavicle 6.36111e-015 2.22639e-014
rhumerus 16.0808 19.4941 -7.70916
rradius 121.544
rwrist -80.5957
rhand 38.3062 -37.1891
rfingers 7.12502
rthumb 60.9768 -49.9013
lclavicle 6.36111e-015 2.22639e-014
lhumerus 15.346 -35.9705 26.5118
lradius 90.0589
lwrist 46.6338
lhand -0.0557144 -27.7257
lfingers 7.12502
lthumb 25.537 0.58275
rfemur 2.58113 4.82294 23.3739
rtibia 6.36111e-015
rfoot -16.2433 -14.8619
rtoes -14.0618
lfemur -14.3284 -1.11895 -4.1656
ltibia 31.1986
lfoot -21.4924 9.04685
ltoes -57.0419
375
root -0.622374 18.6837 5.54689 4.49217 -1.48047 -9.0835
lowerback 15.5591 2.182 -8.23866
upperback 4.56531 1.21325 -7.41824
thorax -3.84787 0.620815 -3.46715
lowerneck -15.6394 -1.26659 -5.60296
upperneck 19.9078 0.29702 -2.64715
head 8.8413 -0.567856 0.0646031
rclavicle -9.54166e-015 -7.95139e-014
rhumerus 15.7629 17.497 -7.75343
rradius 121.754
rwrist -80.958
rhand 38.8833 -37.5256
rfingers 7.12502
rthumb 61.4632 -49.6722
lclavicle -9.54166e-015 -7.95139e-014
lhumerus 15.545 -35.4583 26.1795
lradius 89.941
lwrist 46.6487
lhand 0.0134018 -27.7303
lfingers 7.12502
lthumb 25.6032 0.568657
rfemur 2.64477 5.13677 23.3341
rtibia 1.43125e-014
rfoot -16.2888 -14.8657
rtoes -14.0829
lfemur -14.1148 -1.00021 -4.22483
ltibia 31.178
lfoot -21.5792 9.21039
ltoes -57.0283
376
root -0.622882 18.6822 5.55778 4.40958 -1.73231 -9.08749
lowerback 15.5329 2.10665 -8.14513
upperback 4.34044 1.10131 -7.52813
thorax -4.07192 0.571756 -3.62259
lowerneck -14.805 -1.41386 -5.64768
upperneck 19.0818 0.0438049 -2.82608
head 8.41319 -0.677414 -0.00999153
rclavicle -1.11319e-014 -6.36111e-015
rhumerus 15.055 16.3068 -7.85446
rradius 122.154
rwrist -81.1997
rhand 39.3845 -37.425
rfingers 7.12502
rthumb 61.883 -49.0637
lclavicle -1.11319e-014 -6.36111e-015
lhumerus 15.3954 -35.7208 25.9183
lradius 89.9777
lwrist 46.6378
lhand -0.0263828 -27.802
lfingers 7.12502
lthumb 25.5651 0.502358
rfemur 2.7606 5.38311 23.337
rtibia -3.18055e-015
rfoot -16.3206 -14.8564
rtoes -13.8978
lfemur -13.8698 -0.933769 -4.24057
ltibia 31.1386
lfoot -21.6534 9.28882
ltoes -56.9698
